<svg xmlns="http://www.w3.org/2000/svg" xmlns:xlink="http://www.w3.org/1999/xlink" width="1112" height="646.17"><rect width="1112" height="646.17" rx="5" ry="5" class="a"/><svg y="0%" x="0%"><circle cx="20" cy="20" r="6" fill="#ff5f58"/><circle cx="40" cy="20" r="6" fill="#ffbd2e"/><circle cx="60" cy="20" r="6" fill="#18c132"/></svg><svg height="586.17" viewBox="0 0 107 58.617" width="1070" x="16" xmlns="http://www.w3.org/2000/svg" xmlns:xlink="http://www.w3.org/1999/xlink" y="50"><style>@keyframes i{0%{transform:translateX(0)}3.5%{transform:translateX(-107px)}4.01%{transform:translateX(-214px)}4.27%{transform:translateX(-321px)}4.53%{transform:translateX(-428px)}4.58%{transform:translateX(-535px)}4.91%{transform:translateX(-642px)}5.27%{transform:translateX(-749px)}5.91%{transform:translateX(-856px)}6.07%{transform:translateX(-963px)}6.83%{transform:translateX(-1070px)}7.21%{transform:translateX(-1177px)}8.48%{transform:translateX(-1391px)}9.89%{transform:translateX(-1498px)}10.8%{transform:translateX(-1605px)}11.04%{transform:translateX(-1712px)}11.38%{transform:translateX(-1819px)}11.9%{transform:translateX(-1926px)}12.11%{transform:translateX(-2033px)}12.65%{transform:translateX(-2140px)}12.89%{transform:translateX(-2247px)}14.2%{transform:translateX(-2354px)}14.52%{transform:translateX(-2461px)}15.2%{transform:translateX(-2568px)}15.21%{transform:translateX(-2675px)}16.25%{transform:translateX(-2782px)}16.62%{transform:translateX(-2889px)}17.34%{transform:translateX(-2996px)}17.51%{transform:translateX(-3103px)}18.05%{transform:translateX(-3210px)}18.45%{transform:translateX(-3317px)}19%{transform:translateX(-3531px)}22.23%{transform:translateX(-3638px)}22.78%{transform:translateX(-3745px)}22.94%{transform:translateX(-3852px)}23.4%{transform:translateX(-3959px)}24.04%{transform:translateX(-4066px)}24.4%{transform:translateX(-4173px)}25.08%{transform:translateX(-4280px)}25.24%{transform:translateX(-4387px)}26.19%{transform:translateX(-4494px)}28.72%{transform:translateX(-4601px)}29.1%{transform:translateX(-4708px)}29.52%{transform:translateX(-4815px)}29.99%{transform:translateX(-4922px)}30.53%{transform:translateX(-5029px)}30.91%{transform:translateX(-5136px)}31.14%{transform:translateX(-5243px)}31.51%{transform:translateX(-5350px)}31.78%{transform:translateX(-5457px)}31.99%{transform:translateX(-5564px)}32.39%{transform:translateX(-5671px)}33.17%{transform:translateX(-5778px)}35.45%{transform:translateX(-5885px)}36.39%{transform:translateX(-6099px)}37.29%{transform:translateX(-6206px)}37.85%{transform:translateX(-6313px)}38.07%{transform:translateX(-6420px)}38.44%{transform:translateX(-6527px)}38.76%{transform:translateX(-6634px)}39.09%{transform:translateX(-6741px)}39.57%{transform:translateX(-6848px)}39.74%{transform:translateX(-6955px)}41.13%{transform:translateX(-7062px)}42.5%{transform:translateX(-7169px)}42.78%{transform:translateX(-7276px)}43.18%{transform:translateX(-7383px)}43.67%{transform:translateX(-7490px)}44%{transform:translateX(-7597px)}44.28%{transform:translateX(-7704px)}44.78%{transform:translateX(-7811px)}45.07%{transform:translateX(-7918px)}45.3%{transform:translateX(-8025px)}45.78%{transform:translateX(-8132px)}46.67%{transform:translateX(-8239px)}47.2%{transform:translateX(-8346px)}47.9%{transform:translateX(-8453px)}48.33%{transform:translateX(-8560px)}48.84%{transform:translateX(-8667px)}49.22%{transform:translateX(-8774px)}49.73%{transform:translateX(-8881px)}50.7%{transform:translateX(-8988px)}52.54%{transform:translateX(-9095px)}53.79%{transform:translateX(-9309px)}56.74%{transform:translateX(-9416px)}57.22%{transform:translateX(-9523px)}58.13%{transform:translateX(-9630px)}58.63%{transform:translateX(-9737px)}60.85%{transform:translateX(-9844px)}61.47%{transform:translateX(-9951px)}61.75%{transform:translateX(-10058px)}62.27%{transform:translateX(-10165px)}63.56%{transform:translateX(-10272px)}63.91%{transform:translateX(-10379px)}64.45%{transform:translateX(-10486px)}64.7%{transform:translateX(-10593px)}65.3%{transform:translateX(-10700px)}65.99%{transform:translateX(-10807px)}66.53%{transform:translateX(-10914px)}66.69%{transform:translateX(-11021px)}67.23%{transform:translateX(-11128px)}68.17%{transform:translateX(-11235px)}68.8%{transform:translateX(-11449px)}72.76%{transform:translateX(-11556px)}74.96%{transform:translateX(-11663px)}75.46%{transform:translateX(-11877px)}83.8%{transform:translateX(-11984px)}84.31%{transform:translateX(-12091px)}84.68%{transform:translateX(-12198px)}84.9%{transform:translateX(-12305px)}85.16%{transform:translateX(-12412px)}85.68%{transform:translateX(-12519px)}86.08%{transform:translateX(-12626px)}86.55%{transform:translateX(-12733px)}87.51%{transform:translateX(-12840px)}87.52%{transform:translateX(-12947px)}to{transform:translateX(-13054px)}}.a{fill:#282d35}.f{fill:#b9c0cb;white-space:pre}</style><g font-family="Monaco,Consolas,Menlo,'Bitstream Vera Sans Mono','Powerline Symbols',monospace" font-size="1.67"><defs><symbol id="1"><text y="1.67" class="f">var</text></symbol><symbol id="2"><text y="1.67" class="f">var</text><text x="4.008" y="1.67" class="f">&gt;</text><text x="6.012" y="1.67" class="f">a</text></symbol><symbol id="3"><text y="1.67" class="f">var</text><text x="4.008" y="1.67" class="f">&gt;</text><text x="6.012" y="1.67" class="f">a</text><text x="8.016" y="1.67" class="f">=</text></symbol><symbol id="4"><text y="1.67" class="f">var</text><text x="4.008" y="1.67" class="f">&gt;</text><text x="6.012" y="1.67" class="f">a</text><text x="8.016" y="1.67" class="f">=</text><text x="10.02" y="1.67" class="f">2;</text></symbol><symbol id="5"><text y="1.67" class="f">&gt;</text></symbol><symbol id="6"><text y="1.67" class="f">&gt;</text><text x="2.004" y="1.67" class="f">v</text></symbol><symbol id="7"><text y="1.67" class="f">&gt;</text><text x="2.004" y="1.67" class="f">va</text></symbol><symbol id="8"><text y="1.67" class="f">&gt;</text><text x="2.004" y="1.67" class="f">var</text></symbol><symbol id="9"><text y="1.67" class="f">&gt;</text><text x="2.004" y="1.67" class="f">var</text><text x="6.012" y="1.67" class="f">b</text></symbol><symbol id="10"><text y="1.67" class="f">&gt;</text><text x="2.004" y="1.67" class="f">var</text><text x="6.012" y="1.67" class="f">b</text><text x="8.016" y="1.67" class="f">=</text></symbol><symbol id="11"><text y="1.67" class="f">&gt;</text><text x="2.004" y="1.67" class="f">var</text><text x="6.012" y="1.67" class="f">b</text><text x="8.016" y="1.67" class="f">=</text><text x="10.02" y="1.67" class="f">3;</text></symbol><symbol id="12"><text y="1.67" class="f">&gt;</text><text x="2.004" y="1.67" class="f">a</text></symbol><symbol id="13"><text y="1.67" class="f">&gt;</text><text x="2.004" y="1.67" class="f">a</text><text x="4.008" y="1.67" class="f">+</text></symbol><symbol id="14"><text y="1.67" class="f">&gt;</text><text x="2.004" y="1.67" class="f">a</text><text x="4.008" y="1.67" class="f">+</text><text x="6.012" y="1.67" class="f">b;</text></symbol><symbol id="15"><text y="1.67" class="f">5.0</text></symbol><symbol id="16"><text y="1.67" class="f">&gt;</text><text x="2.004" y="1.67" class="f">var</text><text x="6.012" y="1.67" class="f">c</text></symbol><symbol id="17"><text y="1.67" class="f">&gt;</text><text x="2.004" y="1.67" class="f">var</text><text x="6.012" y="1.67" class="f">c</text><text x="8.016" y="1.67" class="f">=</text></symbol><symbol id="18"><text y="1.67" class="f">&gt;</text><text x="2.004" y="1.67" class="f">var</text><text x="6.012" y="1.67" class="f">c</text><text x="8.016" y="1.67" class="f">=</text><text x="10.02" y="1.67" class="f">&quot;hello</text></symbol><symbol id="19"><text y="1.67" class="f">&gt;</text><text x="2.004" y="1.67" class="f">var</text><text x="6.012" y="1.67" class="f">c</text><text x="8.016" y="1.67" class="f">=</text><text x="10.02" y="1.67" class="f">&quot;hello</text><text x="17.034" y="1.67" class="f">there&quot;;</text></symbol><symbol id="20"><text y="1.67" class="f">&gt;</text><text x="2.004" y="1.67" class="f">var</text><text x="6.012" y="1.67" class="f">d</text></symbol><symbol id="21"><text y="1.67" class="f">&gt;</text><text x="2.004" y="1.67" class="f">var</text><text x="6.012" y="1.67" class="f">d</text><text x="8.016" y="1.67" class="f">=</text></symbol><symbol id="22"><text y="1.67" class="f">&gt;</text><text x="2.004" y="1.67" class="f">var</text><text x="6.012" y="1.67" class="f">d</text><text x="8.016" y="1.67" class="f">=</text><text x="10.02" y="1.67" class="f">&quot;</text></symbol><symbol id="23"><text y="1.67" class="f">&gt;</text><text x="2.004" y="1.67" class="f">var</text><text x="6.012" y="1.67" class="f">d</text><text x="8.016" y="1.67" class="f">=</text><text x="10.02" y="1.67" class="f">&quot;</text><text x="12.024" y="1.67" class="f">general</text></symbol><symbol id="24"><text y="1.67" class="f">&gt;</text><text x="2.004" y="1.67" class="f">var</text><text x="6.012" y="1.67" class="f">d</text><text x="8.016" y="1.67" class="f">=</text><text x="10.02" y="1.67" class="f">&quot;</text><text x="12.024" y="1.67" class="f">general</text><text x="20.04" y="1.67" class="f">grevious&quot;;</text></symbol><symbol id="25"><text y="1.67" class="f">&gt;</text><text x="2.004" y="1.67" class="f">c</text></symbol><symbol id="26"><text y="1.67" class="f">&gt;</text><text x="2.004" y="1.67" class="f">var</text><text x="6.012" y="1.67" class="f">x</text></symbol><symbol id="27"><text y="1.67" class="f">&gt;</text><text x="2.004" y="1.67" class="f">var</text><text x="6.012" y="1.67" class="f">x</text><text x="8.016" y="1.67" class="f">=</text></symbol><symbol id="28"><text y="1.67" class="f">&gt;</text><text x="2.004" y="1.67" class="f">var</text><text x="6.012" y="1.67" class="f">x</text><text x="8.016" y="1.67" class="f">=</text><text x="10.02" y="1.67" class="f">c</text></symbol><symbol id="29"><text y="1.67" class="f">&gt;</text><text x="2.004" y="1.67" class="f">var</text><text x="6.012" y="1.67" class="f">x</text><text x="8.016" y="1.67" class="f">=</text><text x="10.02" y="1.67" class="f">c</text><text x="12.024" y="1.67" class="f">+</text></symbol><symbol id="30"><text y="1.67" class="f">&gt;</text><text x="2.004" y="1.67" class="f">var</text><text x="6.012" y="1.67" class="f">x</text><text x="8.016" y="1.67" class="f">=</text><text x="10.02" y="1.67" class="f">c</text><text x="12.024" y="1.67" class="f">+</text><text x="14.028" y="1.67" class="f">d;</text></symbol><symbol id="31"><text y="1.67" class="f">&gt;</text><text x="2.004" y="1.67" class="f">x;</text></symbol><symbol id="32"><text y="1.67" class="f">&quot;hello</text><text x="7.014" y="1.67" class="f">there</text><text x="13.026" y="1.67" class="f">general</text><text x="21.042" y="1.67" class="f">grevious&quot;</text></symbol><symbol id="33"><text y="1.67" class="f">&gt;</text><text x="2.004" y="1.67" class="f">print</text></symbol><symbol id="34"><text y="1.67" class="f">&gt;</text><text x="2.004" y="1.67" class="f">print</text><text x="8.016" y="1.67" class="f">x;</text></symbol><symbol id="a"><path fill="transparent" d="M0 0h107v27H0z"/></symbol><symbol id="b"><path fill="#6f7683" d="M0 0h1.102v2.171H0z"/></symbol></defs><path class="a" d="M0 0h107v58.617H0z"/><g style="animation-duration:29.942674s;animation-iteration-count:infinite;animation-name:i;animation-timing-function:steps(1,end)"><svg width="13161"><svg><use xlink:href="#a"/><use xlink:href="#b" x="-.004"/></svg><svg x="107"><use xlink:href="#a"/><use xlink:href="#b" x=".996"/><text y="1.67" class="f">v</text></svg><svg x="214"><use xlink:href="#a"/><use xlink:href="#b" x="1.996"/><text y="1.67" class="f">va</text></svg><svg x="321"><use xlink:href="#a"/><use xlink:href="#b" x="2.996"/><use xlink:href="#1"/></svg><svg x="428"><use xlink:href="#a"/><use xlink:href="#b" x="3.996"/><use xlink:href="#1"/></svg><svg x="535"><use xlink:href="#a"/><use xlink:href="#b" x="5.996"/><text y="1.67" class="f">var</text><text x="4.008" y="1.67" class="f">&gt;</text></svg><svg x="642"><use xlink:href="#a"/><use xlink:href="#b" x="6.996"/><use xlink:href="#2"/></svg><svg x="749"><use xlink:href="#a"/><use xlink:href="#b" x="7.996"/><use xlink:href="#2"/></svg><svg x="856"><use xlink:href="#a"/><use xlink:href="#b" x="8.996"/><use xlink:href="#3"/></svg><svg x="963"><use xlink:href="#a"/><use xlink:href="#b" x="9.996"/><use xlink:href="#3"/></svg><svg x="1070"><use xlink:href="#a"/><use xlink:href="#b" x="10.996"/><text y="1.67" class="f">var</text><text x="4.008" y="1.67" class="f">&gt;</text><text x="6.012" y="1.67" class="f">a</text><text x="8.016" y="1.67" class="f">=</text><text x="10.02" y="1.67" class="f">2</text></svg><svg x="1177"><use xlink:href="#a"/><use xlink:href="#b" x="11.996"/><use xlink:href="#4"/></svg><svg x="1284"><use xlink:href="#a"/><use xlink:href="#b" x="-.004" y="2.146"/><use xlink:href="#4"/></svg><svg x="1391"><use xlink:href="#a"/><use xlink:href="#b" x="1.996" y="2.146"/><use xlink:href="#4"/><use xlink:href="#5" y="2.171"/></svg><svg x="1498"><use xlink:href="#a"/><use xlink:href="#b" x="2.996" y="2.146"/><use xlink:href="#4"/><use xlink:href="#6" y="2.171"/></svg><svg x="1605"><use xlink:href="#a"/><use xlink:href="#b" x="3.996" y="2.146"/><use xlink:href="#4"/><use xlink:href="#7" y="2.171"/></svg><svg x="1712"><use xlink:href="#a"/><use xlink:href="#b" x="4.996" y="2.146"/><use xlink:href="#4"/><use xlink:href="#8" y="2.171"/></svg><svg x="1819"><use xlink:href="#a"/><use xlink:href="#b" x="5.996" y="2.146"/><use xlink:href="#4"/><use xlink:href="#8" y="2.171"/></svg><svg x="1926"><use xlink:href="#a"/><use xlink:href="#b" x="6.996" y="2.146"/><use xlink:href="#4"/><use xlink:href="#9" y="2.171"/></svg><svg x="2033"><use xlink:href="#a"/><use xlink:href="#b" x="7.996" y="2.146"/><use xlink:href="#4"/><use xlink:href="#9" y="2.171"/></svg><svg x="2140"><use xlink:href="#a"/><use xlink:href="#b" x="8.996" y="2.146"/><use xlink:href="#4"/><use xlink:href="#10" y="2.171"/></svg><svg x="2247"><use xlink:href="#a"/><use xlink:href="#b" x="9.996" y="2.146"/><use xlink:href="#4"/><use xlink:href="#10" y="2.171"/></svg><svg x="2354"><use xlink:href="#a"/><use xlink:href="#b" x="10.996" y="2.146"/><use xlink:href="#4"/><text y="3.841" class="f">&gt;</text><text x="2.004" y="3.841" class="f">var</text><text x="6.012" y="3.841" class="f">b</text><text x="8.016" y="3.841" class="f">=</text><text x="10.02" y="3.841" class="f">3</text></svg><svg x="2461"><use xlink:href="#a"/><use xlink:href="#b" x="11.996" y="2.146"/><use xlink:href="#4"/><use xlink:href="#11" y="2.171"/></svg><svg x="2568"><use xlink:href="#a"/><use xlink:href="#b" x="-.004" y="4.317"/><use xlink:href="#4"/><use xlink:href="#11" y="2.171"/></svg><svg x="2675"><use xlink:href="#a"/><use xlink:href="#b" x="1.996" y="4.317"/><use xlink:href="#4"/><use xlink:href="#11" y="2.171"/><use xlink:href="#5" y="4.342"/></svg><svg x="2782"><use xlink:href="#a"/><use xlink:href="#b" x="2.996" y="4.317"/><use xlink:href="#4"/><use xlink:href="#11" y="2.171"/><use xlink:href="#12" y="4.342"/></svg><svg x="2889"><use xlink:href="#a"/><use xlink:href="#b" x="3.996" y="4.317"/><use xlink:href="#4"/><use xlink:href="#11" y="2.171"/><use xlink:href="#12" y="4.342"/></svg><svg x="2996"><use xlink:href="#a"/><use xlink:href="#b" x="4.996" y="4.317"/><use xlink:href="#4"/><use xlink:href="#11" y="2.171"/><use xlink:href="#13" y="4.342"/></svg><svg x="3103"><use xlink:href="#a"/><use xlink:href="#b" x="5.996" y="4.317"/><use xlink:href="#4"/><use xlink:href="#11" y="2.171"/><use xlink:href="#13" y="4.342"/></svg><svg x="3210"><use xlink:href="#a"/><use xlink:href="#b" x="6.996" y="4.317"/><use xlink:href="#4"/><use xlink:href="#11" y="2.171"/><text y="6.012" class="f">&gt;</text><text x="2.004" y="6.012" class="f">a</text><text x="4.008" y="6.012" class="f">+</text><text x="6.012" y="6.012" class="f">b</text></svg><svg x="3317"><use xlink:href="#a"/><use xlink:href="#b" x="7.996" y="4.317"/><use xlink:href="#4"/><use xlink:href="#11" y="2.171"/><use xlink:href="#14" y="4.342"/></svg><svg x="3424"><use xlink:href="#a"/><use xlink:href="#b" x="-.004" y="6.488"/><use xlink:href="#4"/><use xlink:href="#11" y="2.171"/><use xlink:href="#14" y="4.342"/></svg><svg x="3531"><use xlink:href="#a"/><use xlink:href="#b" x="1.996" y="8.659"/><use xlink:href="#4"/><use xlink:href="#11" y="2.171"/><use xlink:href="#14" y="4.342"/><use xlink:href="#15" y="6.513"/><use xlink:href="#5" y="8.684"/></svg><svg x="3638"><use xlink:href="#a"/><use xlink:href="#b" x="2.996" y="8.659"/><use xlink:href="#4"/><use xlink:href="#11" y="2.171"/><use xlink:href="#14" y="4.342"/><use xlink:href="#15" y="6.513"/><use xlink:href="#6" y="8.684"/></svg><svg x="3745"><use xlink:href="#a"/><use xlink:href="#b" x="3.996" y="8.659"/><use xlink:href="#4"/><use xlink:href="#11" y="2.171"/><use xlink:href="#14" y="4.342"/><use xlink:href="#15" y="6.513"/><use xlink:href="#7" y="8.684"/></svg><svg x="3852"><use xlink:href="#a"/><use xlink:href="#b" x="4.996" y="8.659"/><use xlink:href="#4"/><use xlink:href="#11" y="2.171"/><use xlink:href="#14" y="4.342"/><use xlink:href="#15" y="6.513"/><use xlink:href="#8" y="8.684"/></svg><svg x="3959"><use xlink:href="#a"/><use xlink:href="#b" x="5.996" y="8.659"/><use xlink:href="#4"/><use xlink:href="#11" y="2.171"/><use xlink:href="#14" y="4.342"/><use xlink:href="#15" y="6.513"/><use xlink:href="#8" y="8.684"/></svg><svg x="4066"><use xlink:href="#a"/><use xlink:href="#b" x="6.996" y="8.659"/><use xlink:href="#4"/><use xlink:href="#11" y="2.171"/><use xlink:href="#14" y="4.342"/><use xlink:href="#15" y="6.513"/><use xlink:href="#16" y="8.684"/></svg><svg x="4173"><use xlink:href="#a"/><use xlink:href="#b" x="7.996" y="8.659"/><use xlink:href="#4"/><use xlink:href="#11" y="2.171"/><use xlink:href="#14" y="4.342"/><use xlink:href="#15" y="6.513"/><use xlink:href="#16" y="8.684"/></svg><svg x="4280"><use xlink:href="#a"/><use xlink:href="#b" x="8.996" y="8.659"/><use xlink:href="#4"/><use xlink:href="#11" y="2.171"/><use xlink:href="#14" y="4.342"/><use xlink:href="#15" y="6.513"/><use xlink:href="#17" y="8.684"/></svg><svg x="4387"><use xlink:href="#a"/><use xlink:href="#b" x="9.996" y="8.659"/><use xlink:href="#4"/><use xlink:href="#11" y="2.171"/><use xlink:href="#14" y="4.342"/><use xlink:href="#15" y="6.513"/><use xlink:href="#17" y="8.684"/></svg><svg x="4494"><use xlink:href="#a"/><use xlink:href="#b" x="10.996" y="8.659"/><use xlink:href="#4"/><use xlink:href="#11" y="2.171"/><use xlink:href="#14" y="4.342"/><use xlink:href="#15" y="6.513"/><text y="10.354" class="f">&gt;</text><text x="2.004" y="10.354" class="f">var</text><text x="6.012" y="10.354" class="f">c</text><text x="8.016" y="10.354" class="f">=</text><text x="10.02" y="10.354" class="f">&quot;</text></svg><svg x="4601"><use xlink:href="#a"/><use xlink:href="#b" x="11.996" y="8.659"/><use xlink:href="#4"/><use xlink:href="#11" y="2.171"/><use xlink:href="#14" y="4.342"/><use xlink:href="#15" y="6.513"/><text y="10.354" class="f">&gt;</text><text x="2.004" y="10.354" class="f">var</text><text x="6.012" y="10.354" class="f">c</text><text x="8.016" y="10.354" class="f">=</text><text x="10.02" y="10.354" class="f">&quot;h</text></svg><svg x="4708"><use xlink:href="#a"/><use xlink:href="#b" x="12.996" y="8.659"/><use xlink:href="#4"/><use xlink:href="#11" y="2.171"/><use xlink:href="#14" y="4.342"/><use xlink:href="#15" y="6.513"/><text y="10.354" class="f">&gt;</text><text x="2.004" y="10.354" class="f">var</text><text x="6.012" y="10.354" class="f">c</text><text x="8.016" y="10.354" class="f">=</text><text x="10.02" y="10.354" class="f">&quot;he</text></svg><svg x="4815"><use xlink:href="#a"/><use xlink:href="#b" x="13.996" y="8.659"/><use xlink:href="#4"/><use xlink:href="#11" y="2.171"/><use xlink:href="#14" y="4.342"/><use xlink:href="#15" y="6.513"/><text y="10.354" class="f">&gt;</text><text x="2.004" y="10.354" class="f">var</text><text x="6.012" y="10.354" class="f">c</text><text x="8.016" y="10.354" class="f">=</text><text x="10.02" y="10.354" class="f">&quot;hel</text></svg><svg x="4922"><use xlink:href="#a"/><use xlink:href="#b" x="14.996" y="8.659"/><use xlink:href="#4"/><use xlink:href="#11" y="2.171"/><use xlink:href="#14" y="4.342"/><use xlink:href="#15" y="6.513"/><text y="10.354" class="f">&gt;</text><text x="2.004" y="10.354" class="f">var</text><text x="6.012" y="10.354" class="f">c</text><text x="8.016" y="10.354" class="f">=</text><text x="10.02" y="10.354" class="f">&quot;hell</text></svg><svg x="5029"><use xlink:href="#a"/><use xlink:href="#b" x="15.996" y="8.659"/><use xlink:href="#4"/><use xlink:href="#11" y="2.171"/><use xlink:href="#14" y="4.342"/><use xlink:href="#15" y="6.513"/><use xlink:href="#18" y="8.684"/></svg><svg x="5136"><use xlink:href="#a"/><use xlink:href="#b" x="16.996" y="8.659"/><use xlink:href="#4"/><use xlink:href="#11" y="2.171"/><use xlink:href="#14" y="4.342"/><use xlink:href="#15" y="6.513"/><use xlink:href="#18" y="8.684"/></svg><svg x="5243"><use xlink:href="#a"/><use xlink:href="#b" x="17.996" y="8.659"/><use xlink:href="#4"/><use xlink:href="#11" y="2.171"/><use xlink:href="#14" y="4.342"/><use xlink:href="#15" y="6.513"/><text y="10.354" class="f">&gt;</text><text x="2.004" y="10.354" class="f">var</text><text x="6.012" y="10.354" class="f">c</text><text x="8.016" y="10.354" class="f">=</text><text x="10.02" y="10.354" class="f">&quot;hello</text><text x="17.034" y="10.354" class="f">t</text></svg><svg x="5350"><use xlink:href="#a"/><use xlink:href="#b" x="18.996" y="8.659"/><use xlink:href="#4"/><use xlink:href="#11" y="2.171"/><use xlink:href="#14" y="4.342"/><use xlink:href="#15" y="6.513"/><text y="10.354" class="f">&gt;</text><text x="2.004" y="10.354" class="f">var</text><text x="6.012" y="10.354" class="f">c</text><text x="8.016" y="10.354" class="f">=</text><text x="10.02" y="10.354" class="f">&quot;hello</text><text x="17.034" y="10.354" class="f">th</text></svg><svg x="5457"><use xlink:href="#a"/><use xlink:href="#b" x="19.996" y="8.659"/><use xlink:href="#4"/><use xlink:href="#11" y="2.171"/><use xlink:href="#14" y="4.342"/><use xlink:href="#15" y="6.513"/><text y="10.354" class="f">&gt;</text><text x="2.004" y="10.354" class="f">var</text><text x="6.012" y="10.354" class="f">c</text><text x="8.016" y="10.354" class="f">=</text><text x="10.02" y="10.354" class="f">&quot;hello</text><text x="17.034" y="10.354" class="f">the</text></svg><svg x="5564"><use xlink:href="#a"/><use xlink:href="#b" x="20.996" y="8.659"/><use xlink:href="#4"/><use xlink:href="#11" y="2.171"/><use xlink:href="#14" y="4.342"/><use xlink:href="#15" y="6.513"/><text y="10.354" class="f">&gt;</text><text x="2.004" y="10.354" class="f">var</text><text x="6.012" y="10.354" class="f">c</text><text x="8.016" y="10.354" class="f">=</text><text x="10.02" y="10.354" class="f">&quot;hello</text><text x="17.034" y="10.354" class="f">ther</text></svg><svg x="5671"><use xlink:href="#a"/><use xlink:href="#b" x="21.996" y="8.659"/><use xlink:href="#4"/><use xlink:href="#11" y="2.171"/><use xlink:href="#14" y="4.342"/><use xlink:href="#15" y="6.513"/><text y="10.354" class="f">&gt;</text><text x="2.004" y="10.354" class="f">var</text><text x="6.012" y="10.354" class="f">c</text><text x="8.016" y="10.354" class="f">=</text><text x="10.02" y="10.354" class="f">&quot;hello</text><text x="17.034" y="10.354" class="f">there</text></svg><svg x="5778"><use xlink:href="#a"/><use xlink:href="#b" x="22.996" y="8.659"/><use xlink:href="#4"/><use xlink:href="#11" y="2.171"/><use xlink:href="#14" y="4.342"/><use xlink:href="#15" y="6.513"/><text y="10.354" class="f">&gt;</text><text x="2.004" y="10.354" class="f">var</text><text x="6.012" y="10.354" class="f">c</text><text x="8.016" y="10.354" class="f">=</text><text x="10.02" y="10.354" class="f">&quot;hello</text><text x="17.034" y="10.354" class="f">there&quot;</text></svg><svg x="5885"><use xlink:href="#a"/><use xlink:href="#b" x="23.996" y="8.659"/><use xlink:href="#4"/><use xlink:href="#11" y="2.171"/><use xlink:href="#14" y="4.342"/><use xlink:href="#15" y="6.513"/><use xlink:href="#19" y="8.684"/></svg><svg x="5992"><use xlink:href="#a"/><use xlink:href="#b" x="-.004" y="10.83"/><use xlink:href="#4"/><use xlink:href="#11" y="2.171"/><use xlink:href="#14" y="4.342"/><use xlink:href="#15" y="6.513"/><use xlink:href="#19" y="8.684"/></svg><svg x="6099"><use xlink:href="#a"/><use xlink:href="#b" x="1.996" y="10.83"/><use xlink:href="#4"/><use xlink:href="#11" y="2.171"/><use xlink:href="#14" y="4.342"/><use xlink:href="#15" y="6.513"/><use xlink:href="#19" y="8.684"/><use xlink:href="#5" y="10.855"/></svg><svg x="6206"><use xlink:href="#a"/><use xlink:href="#b" x="2.996" y="10.83"/><use xlink:href="#4"/><use xlink:href="#11" y="2.171"/><use xlink:href="#14" y="4.342"/><use xlink:href="#15" y="6.513"/><use xlink:href="#19" y="8.684"/><use xlink:href="#6" y="10.855"/></svg><svg x="6313"><use xlink:href="#a"/><use xlink:href="#b" x="3.996" y="10.83"/><use xlink:href="#4"/><use xlink:href="#11" y="2.171"/><use xlink:href="#14" y="4.342"/><use xlink:href="#15" y="6.513"/><use xlink:href="#19" y="8.684"/><use xlink:href="#7" y="10.855"/></svg><svg x="6420"><use xlink:href="#a"/><use xlink:href="#b" x="4.996" y="10.83"/><use xlink:href="#4"/><use xlink:href="#11" y="2.171"/><use xlink:href="#14" y="4.342"/><use xlink:href="#15" y="6.513"/><use xlink:href="#19" y="8.684"/><use xlink:href="#8" y="10.855"/></svg><svg x="6527"><use xlink:href="#a"/><use xlink:href="#b" x="5.996" y="10.83"/><use xlink:href="#4"/><use xlink:href="#11" y="2.171"/><use xlink:href="#14" y="4.342"/><use xlink:href="#15" y="6.513"/><use xlink:href="#19" y="8.684"/><use xlink:href="#8" y="10.855"/></svg><svg x="6634"><use xlink:href="#a"/><use xlink:href="#b" x="6.996" y="10.83"/><use xlink:href="#4"/><use xlink:href="#11" y="2.171"/><use xlink:href="#14" y="4.342"/><use xlink:href="#15" y="6.513"/><use xlink:href="#19" y="8.684"/><use xlink:href="#20" y="10.855"/></svg><svg x="6741"><use xlink:href="#a"/><use xlink:href="#b" x="7.996" y="10.83"/><use xlink:href="#4"/><use xlink:href="#11" y="2.171"/><use xlink:href="#14" y="4.342"/><use xlink:href="#15" y="6.513"/><use xlink:href="#19" y="8.684"/><use xlink:href="#20" y="10.855"/></svg><svg x="6848"><use xlink:href="#a"/><use xlink:href="#b" x="8.996" y="10.83"/><use xlink:href="#4"/><use xlink:href="#11" y="2.171"/><use xlink:href="#14" y="4.342"/><use xlink:href="#15" y="6.513"/><use xlink:href="#19" y="8.684"/><use xlink:href="#21" y="10.855"/></svg><svg x="6955"><use xlink:href="#a"/><use xlink:href="#b" x="9.996" y="10.83"/><use xlink:href="#4"/><use xlink:href="#11" y="2.171"/><use xlink:href="#14" y="4.342"/><use xlink:href="#15" y="6.513"/><use xlink:href="#19" y="8.684"/><use xlink:href="#21" y="10.855"/></svg><svg x="7062"><use xlink:href="#a"/><use xlink:href="#b" x="10.996" y="10.83"/><use xlink:href="#4"/><use xlink:href="#11" y="2.171"/><use xlink:href="#14" y="4.342"/><use xlink:href="#15" y="6.513"/><use xlink:href="#19" y="8.684"/><use xlink:href="#22" y="10.855"/></svg><svg x="7169"><use xlink:href="#a"/><use xlink:href="#b" x="11.996" y="10.83"/><use xlink:href="#4"/><use xlink:href="#11" y="2.171"/><use xlink:href="#14" y="4.342"/><use xlink:href="#15" y="6.513"/><use xlink:href="#19" y="8.684"/><use xlink:href="#22" y="10.855"/></svg><svg x="7276"><use xlink:href="#a"/><use xlink:href="#b" x="12.996" y="10.83"/><use xlink:href="#4"/><use xlink:href="#11" y="2.171"/><use xlink:href="#14" y="4.342"/><use xlink:href="#15" y="6.513"/><use xlink:href="#19" y="8.684"/><text y="12.525" class="f">&gt;</text><text x="2.004" y="12.525" class="f">var</text><text x="6.012" y="12.525" class="f">d</text><text x="8.016" y="12.525" class="f">=</text><text x="10.02" y="12.525" class="f">&quot;</text><text x="12.024" y="12.525" class="f">g</text></svg><svg x="7383"><use xlink:href="#a"/><use xlink:href="#b" x="13.996" y="10.83"/><use xlink:href="#4"/><use xlink:href="#11" y="2.171"/><use xlink:href="#14" y="4.342"/><use xlink:href="#15" y="6.513"/><use xlink:href="#19" y="8.684"/><text y="12.525" class="f">&gt;</text><text x="2.004" y="12.525" class="f">var</text><text x="6.012" y="12.525" class="f">d</text><text x="8.016" y="12.525" class="f">=</text><text x="10.02" y="12.525" class="f">&quot;</text><text x="12.024" y="12.525" class="f">ge</text></svg><svg x="7490"><use xlink:href="#a"/><use xlink:href="#b" x="14.996" y="10.83"/><use xlink:href="#4"/><use xlink:href="#11" y="2.171"/><use xlink:href="#14" y="4.342"/><use xlink:href="#15" y="6.513"/><use xlink:href="#19" y="8.684"/><text y="12.525" class="f">&gt;</text><text x="2.004" y="12.525" class="f">var</text><text x="6.012" y="12.525" class="f">d</text><text x="8.016" y="12.525" class="f">=</text><text x="10.02" y="12.525" class="f">&quot;</text><text x="12.024" y="12.525" class="f">gen</text></svg><svg x="7597"><use xlink:href="#a"/><use xlink:href="#b" x="15.996" y="10.83"/><use xlink:href="#4"/><use xlink:href="#11" y="2.171"/><use xlink:href="#14" y="4.342"/><use xlink:href="#15" y="6.513"/><use xlink:href="#19" y="8.684"/><text y="12.525" class="f">&gt;</text><text x="2.004" y="12.525" class="f">var</text><text x="6.012" y="12.525" class="f">d</text><text x="8.016" y="12.525" class="f">=</text><text x="10.02" y="12.525" class="f">&quot;</text><text x="12.024" y="12.525" class="f">gene</text></svg><svg x="7704"><use xlink:href="#a"/><use xlink:href="#b" x="16.996" y="10.83"/><use xlink:href="#4"/><use xlink:href="#11" y="2.171"/><use xlink:href="#14" y="4.342"/><use xlink:href="#15" y="6.513"/><use xlink:href="#19" y="8.684"/><text y="12.525" class="f">&gt;</text><text x="2.004" y="12.525" class="f">var</text><text x="6.012" y="12.525" class="f">d</text><text x="8.016" y="12.525" class="f">=</text><text x="10.02" y="12.525" class="f">&quot;</text><text x="12.024" y="12.525" class="f">gener</text></svg><svg x="7811"><use xlink:href="#a"/><use xlink:href="#b" x="17.996" y="10.83"/><use xlink:href="#4"/><use xlink:href="#11" y="2.171"/><use xlink:href="#14" y="4.342"/><use xlink:href="#15" y="6.513"/><use xlink:href="#19" y="8.684"/><text y="12.525" class="f">&gt;</text><text x="2.004" y="12.525" class="f">var</text><text x="6.012" y="12.525" class="f">d</text><text x="8.016" y="12.525" class="f">=</text><text x="10.02" y="12.525" class="f">&quot;</text><text x="12.024" y="12.525" class="f">genera</text></svg><svg x="7918"><use xlink:href="#a"/><use xlink:href="#b" x="18.996" y="10.83"/><use xlink:href="#4"/><use xlink:href="#11" y="2.171"/><use xlink:href="#14" y="4.342"/><use xlink:href="#15" y="6.513"/><use xlink:href="#19" y="8.684"/><use xlink:href="#23" y="10.855"/></svg><svg x="8025"><use xlink:href="#a"/><use xlink:href="#b" x="19.996" y="10.83"/><use xlink:href="#4"/><use xlink:href="#11" y="2.171"/><use xlink:href="#14" y="4.342"/><use xlink:href="#15" y="6.513"/><use xlink:href="#19" y="8.684"/><use xlink:href="#23" y="10.855"/></svg><svg x="8132"><use xlink:href="#a"/><use xlink:href="#b" x="20.996" y="10.83"/><use xlink:href="#4"/><use xlink:href="#11" y="2.171"/><use xlink:href="#14" y="4.342"/><use xlink:href="#15" y="6.513"/><use xlink:href="#19" y="8.684"/><text y="12.525" class="f">&gt;</text><text x="2.004" y="12.525" class="f">var</text><text x="6.012" y="12.525" class="f">d</text><text x="8.016" y="12.525" class="f">=</text><text x="10.02" y="12.525" class="f">&quot;</text><text x="12.024" y="12.525" class="f">general</text><text x="20.04" y="12.525" class="f">g</text></svg><svg x="8239"><use xlink:href="#a"/><use xlink:href="#b" x="21.996" y="10.83"/><use xlink:href="#4"/><use xlink:href="#11" y="2.171"/><use xlink:href="#14" y="4.342"/><use xlink:href="#15" y="6.513"/><use xlink:href="#19" y="8.684"/><text y="12.525" class="f">&gt;</text><text x="2.004" y="12.525" class="f">var</text><text x="6.012" y="12.525" class="f">d</text><text x="8.016" y="12.525" class="f">=</text><text x="10.02" y="12.525" class="f">&quot;</text><text x="12.024" y="12.525" class="f">general</text><text x="20.04" y="12.525" class="f">gr</text></svg><svg x="8346"><use xlink:href="#a"/><use xlink:href="#b" x="22.996" y="10.83"/><use xlink:href="#4"/><use xlink:href="#11" y="2.171"/><use xlink:href="#14" y="4.342"/><use xlink:href="#15" y="6.513"/><use xlink:href="#19" y="8.684"/><text y="12.525" class="f">&gt;</text><text x="2.004" y="12.525" class="f">var</text><text x="6.012" y="12.525" class="f">d</text><text x="8.016" y="12.525" class="f">=</text><text x="10.02" y="12.525" class="f">&quot;</text><text x="12.024" y="12.525" class="f">general</text><text x="20.04" y="12.525" class="f">gre</text></svg><svg x="8453"><use xlink:href="#a"/><use xlink:href="#b" x="23.996" y="10.83"/><use xlink:href="#4"/><use xlink:href="#11" y="2.171"/><use xlink:href="#14" y="4.342"/><use xlink:href="#15" y="6.513"/><use xlink:href="#19" y="8.684"/><text y="12.525" class="f">&gt;</text><text x="2.004" y="12.525" class="f">var</text><text x="6.012" y="12.525" class="f">d</text><text x="8.016" y="12.525" class="f">=</text><text x="10.02" y="12.525" class="f">&quot;</text><text x="12.024" y="12.525" class="f">general</text><text x="20.04" y="12.525" class="f">grev</text></svg><svg x="8560"><use xlink:href="#a"/><use xlink:href="#b" x="24.996" y="10.83"/><use xlink:href="#4"/><use xlink:href="#11" y="2.171"/><use xlink:href="#14" y="4.342"/><use xlink:href="#15" y="6.513"/><use xlink:href="#19" y="8.684"/><text y="12.525" class="f">&gt;</text><text x="2.004" y="12.525" class="f">var</text><text x="6.012" y="12.525" class="f">d</text><text x="8.016" y="12.525" class="f">=</text><text x="10.02" y="12.525" class="f">&quot;</text><text x="12.024" y="12.525" class="f">general</text><text x="20.04" y="12.525" class="f">grevi</text></svg><svg x="8667"><use xlink:href="#a"/><use xlink:href="#b" x="25.996" y="10.83"/><use xlink:href="#4"/><use xlink:href="#11" y="2.171"/><use xlink:href="#14" y="4.342"/><use xlink:href="#15" y="6.513"/><use xlink:href="#19" y="8.684"/><text y="12.525" class="f">&gt;</text><text x="2.004" y="12.525" class="f">var</text><text x="6.012" y="12.525" class="f">d</text><text x="8.016" y="12.525" class="f">=</text><text x="10.02" y="12.525" class="f">&quot;</text><text x="12.024" y="12.525" class="f">general</text><text x="20.04" y="12.525" class="f">grevio</text></svg><svg x="8774"><use xlink:href="#a"/><use xlink:href="#b" x="26.996" y="10.83"/><use xlink:href="#4"/><use xlink:href="#11" y="2.171"/><use xlink:href="#14" y="4.342"/><use xlink:href="#15" y="6.513"/><use xlink:href="#19" y="8.684"/><text y="12.525" class="f">&gt;</text><text x="2.004" y="12.525" class="f">var</text><text x="6.012" y="12.525" class="f">d</text><text x="8.016" y="12.525" class="f">=</text><text x="10.02" y="12.525" class="f">&quot;</text><text x="12.024" y="12.525" class="f">general</text><text x="20.04" y="12.525" class="f">greviou</text></svg><svg x="8881"><use xlink:href="#a"/><use xlink:href="#b" x="27.996" y="10.83"/><use xlink:href="#4"/><use xlink:href="#11" y="2.171"/><use xlink:href="#14" y="4.342"/><use xlink:href="#15" y="6.513"/><use xlink:href="#19" y="8.684"/><text y="12.525" class="f">&gt;</text><text x="2.004" y="12.525" class="f">var</text><text x="6.012" y="12.525" class="f">d</text><text x="8.016" y="12.525" class="f">=</text><text x="10.02" y="12.525" class="f">&quot;</text><text x="12.024" y="12.525" class="f">general</text><text x="20.04" y="12.525" class="f">grevious</text></svg><svg x="8988"><use xlink:href="#a"/><use xlink:href="#b" x="28.996" y="10.83"/><use xlink:href="#4"/><use xlink:href="#11" y="2.171"/><use xlink:href="#14" y="4.342"/><use xlink:href="#15" y="6.513"/><use xlink:href="#19" y="8.684"/><text y="12.525" class="f">&gt;</text><text x="2.004" y="12.525" class="f">var</text><text x="6.012" y="12.525" class="f">d</text><text x="8.016" y="12.525" class="f">=</text><text x="10.02" y="12.525" class="f">&quot;</text><text x="12.024" y="12.525" class="f">general</text><text x="20.04" y="12.525" class="f">grevious&quot;</text></svg><svg x="9095"><use xlink:href="#a"/><use xlink:href="#b" x="29.996" y="10.83"/><use xlink:href="#4"/><use xlink:href="#11" y="2.171"/><use xlink:href="#14" y="4.342"/><use xlink:href="#15" y="6.513"/><use xlink:href="#19" y="8.684"/><use xlink:href="#24" y="10.855"/></svg><svg x="9202"><use xlink:href="#a"/><use xlink:href="#b" x="-.004" y="13.001"/><use xlink:href="#4"/><use xlink:href="#11" y="2.171"/><use xlink:href="#14" y="4.342"/><use xlink:href="#15" y="6.513"/><use xlink:href="#19" y="8.684"/><use xlink:href="#24" y="10.855"/></svg><svg x="9309"><use xlink:href="#a"/><use xlink:href="#b" x="1.996" y="13.001"/><use xlink:href="#4"/><use xlink:href="#11" y="2.171"/><use xlink:href="#14" y="4.342"/><use xlink:href="#15" y="6.513"/><use xlink:href="#19" y="8.684"/><use xlink:href="#24" y="10.855"/><use xlink:href="#5" y="13.026"/></svg><svg x="9416"><use xlink:href="#a"/><use xlink:href="#b" x="2.996" y="13.001"/><use xlink:href="#4"/><use xlink:href="#11" y="2.171"/><use xlink:href="#14" y="4.342"/><use xlink:href="#15" y="6.513"/><use xlink:href="#19" y="8.684"/><use xlink:href="#24" y="10.855"/><use xlink:href="#25" y="13.026"/></svg><svg x="9523"><use xlink:href="#a"/><use xlink:href="#b" x="3.996" y="13.001"/><use xlink:href="#4"/><use xlink:href="#11" y="2.171"/><use xlink:href="#14" y="4.342"/><use xlink:href="#15" y="6.513"/><use xlink:href="#19" y="8.684"/><use xlink:href="#24" y="10.855"/><use xlink:href="#25" y="13.026"/></svg><svg x="9630"><use xlink:href="#a"/><use xlink:href="#b" x="2.996" y="13.001"/><use xlink:href="#4"/><use xlink:href="#11" y="2.171"/><use xlink:href="#14" y="4.342"/><use xlink:href="#15" y="6.513"/><use xlink:href="#19" y="8.684"/><use xlink:href="#24" y="10.855"/><use xlink:href="#25" y="13.026"/></svg><svg x="9737"><use xlink:href="#a"/><use xlink:href="#b" x="1.996" y="13.001"/><use xlink:href="#4"/><use xlink:href="#11" y="2.171"/><use xlink:href="#14" y="4.342"/><use xlink:href="#15" y="6.513"/><use xlink:href="#19" y="8.684"/><use xlink:href="#24" y="10.855"/><use xlink:href="#5" y="13.026"/></svg><svg x="9844"><use xlink:href="#a"/><use xlink:href="#b" x="2.996" y="13.001"/><use xlink:href="#4"/><use xlink:href="#11" y="2.171"/><use xlink:href="#14" y="4.342"/><use xlink:href="#15" y="6.513"/><use xlink:href="#19" y="8.684"/><use xlink:href="#24" y="10.855"/><use xlink:href="#6" y="13.026"/></svg><svg x="9951"><use xlink:href="#a"/><use xlink:href="#b" x="3.996" y="13.001"/><use xlink:href="#4"/><use xlink:href="#11" y="2.171"/><use xlink:href="#14" y="4.342"/><use xlink:href="#15" y="6.513"/><use xlink:href="#19" y="8.684"/><use xlink:href="#24" y="10.855"/><use xlink:href="#7" y="13.026"/></svg><svg x="10058"><use xlink:href="#a"/><use xlink:href="#b" x="4.996" y="13.001"/><use xlink:href="#4"/><use xlink:href="#11" y="2.171"/><use xlink:href="#14" y="4.342"/><use xlink:href="#15" y="6.513"/><use xlink:href="#19" y="8.684"/><use xlink:href="#24" y="10.855"/><use xlink:href="#8" y="13.026"/></svg><svg x="10165"><use xlink:href="#a"/><use xlink:href="#b" x="5.996" y="13.001"/><use xlink:href="#4"/><use xlink:href="#11" y="2.171"/><use xlink:href="#14" y="4.342"/><use xlink:href="#15" y="6.513"/><use xlink:href="#19" y="8.684"/><use xlink:href="#24" y="10.855"/><use xlink:href="#8" y="13.026"/></svg><svg x="10272"><use xlink:href="#a"/><use xlink:href="#b" x="6.996" y="13.001"/><use xlink:href="#4"/><use xlink:href="#11" y="2.171"/><use xlink:href="#14" y="4.342"/><use xlink:href="#15" y="6.513"/><use xlink:href="#19" y="8.684"/><use xlink:href="#24" y="10.855"/><use xlink:href="#26" y="13.026"/></svg><svg x="10379"><use xlink:href="#a"/><use xlink:href="#b" x="7.996" y="13.001"/><use xlink:href="#4"/><use xlink:href="#11" y="2.171"/><use xlink:href="#14" y="4.342"/><use xlink:href="#15" y="6.513"/><use xlink:href="#19" y="8.684"/><use xlink:href="#24" y="10.855"/><use xlink:href="#26" y="13.026"/></svg><svg x="10486"><use xlink:href="#a"/><use xlink:href="#b" x="8.996" y="13.001"/><use xlink:href="#4"/><use xlink:href="#11" y="2.171"/><use xlink:href="#14" y="4.342"/><use xlink:href="#15" y="6.513"/><use xlink:href="#19" y="8.684"/><use xlink:href="#24" y="10.855"/><use xlink:href="#27" y="13.026"/></svg><svg x="10593"><use xlink:href="#a"/><use xlink:href="#b" x="9.996" y="13.001"/><use xlink:href="#4"/><use xlink:href="#11" y="2.171"/><use xlink:href="#14" y="4.342"/><use xlink:href="#15" y="6.513"/><use xlink:href="#19" y="8.684"/><use xlink:href="#24" y="10.855"/><use xlink:href="#27" y="13.026"/></svg><svg x="10700"><use xlink:href="#a"/><use xlink:href="#b" x="10.996" y="13.001"/><use xlink:href="#4"/><use xlink:href="#11" y="2.171"/><use xlink:href="#14" y="4.342"/><use xlink:href="#15" y="6.513"/><use xlink:href="#19" y="8.684"/><use xlink:href="#24" y="10.855"/><use xlink:href="#28" y="13.026"/></svg><svg x="10807"><use xlink:href="#a"/><use xlink:href="#b" x="11.996" y="13.001"/><use xlink:href="#4"/><use xlink:href="#11" y="2.171"/><use xlink:href="#14" y="4.342"/><use xlink:href="#15" y="6.513"/><use xlink:href="#19" y="8.684"/><use xlink:href="#24" y="10.855"/><use xlink:href="#28" y="13.026"/></svg><svg x="10914"><use xlink:href="#a"/><use xlink:href="#b" x="12.996" y="13.001"/><use xlink:href="#4"/><use xlink:href="#11" y="2.171"/><use xlink:href="#14" y="4.342"/><use xlink:href="#15" y="6.513"/><use xlink:href="#19" y="8.684"/><use xlink:href="#24" y="10.855"/><use xlink:href="#29" y="13.026"/></svg><svg x="11021"><use xlink:href="#a"/><use xlink:href="#b" x="13.996" y="13.001"/><use xlink:href="#4"/><use xlink:href="#11" y="2.171"/><use xlink:href="#14" y="4.342"/><use xlink:href="#15" y="6.513"/><use xlink:href="#19" y="8.684"/><use xlink:href="#24" y="10.855"/><use xlink:href="#29" y="13.026"/></svg><svg x="11128"><use xlink:href="#a"/><use xlink:href="#b" x="14.996" y="13.001"/><use xlink:href="#4"/><use xlink:href="#11" y="2.171"/><use xlink:href="#14" y="4.342"/><use xlink:href="#15" y="6.513"/><use xlink:href="#19" y="8.684"/><use xlink:href="#24" y="10.855"/><text y="14.696" class="f">&gt;</text><text x="2.004" y="14.696" class="f">var</text><text x="6.012" y="14.696" class="f">x</text><text x="8.016" y="14.696" class="f">=</text><text x="10.02" y="14.696" class="f">c</text><text x="12.024" y="14.696" class="f">+</text><text x="14.028" y="14.696" class="f">d</text></svg><svg x="11235"><use xlink:href="#a"/><use xlink:href="#b" x="15.996" y="13.001"/><use xlink:href="#4"/><use xlink:href="#11" y="2.171"/><use xlink:href="#14" y="4.342"/><use xlink:href="#15" y="6.513"/><use xlink:href="#19" y="8.684"/><use xlink:href="#24" y="10.855"/><use xlink:href="#30" y="13.026"/></svg><svg x="11342"><use xlink:href="#a"/><use xlink:href="#b" x="-.004" y="15.172"/><use xlink:href="#4"/><use xlink:href="#11" y="2.171"/><use xlink:href="#14" y="4.342"/><use xlink:href="#15" y="6.513"/><use xlink:href="#19" y="8.684"/><use xlink:href="#24" y="10.855"/><use xlink:href="#30" y="13.026"/></svg><svg x="11449"><use xlink:href="#a"/><use xlink:href="#b" x="1.996" y="15.172"/><use xlink:href="#4"/><use xlink:href="#11" y="2.171"/><use xlink:href="#14" y="4.342"/><use xlink:href="#15" y="6.513"/><use xlink:href="#19" y="8.684"/><use xlink:href="#24" y="10.855"/><use xlink:href="#30" y="13.026"/><use xlink:href="#5" y="15.197"/></svg><svg x="11556"><use xlink:href="#a"/><use xlink:href="#b" x="2.996" y="15.172"/><use xlink:href="#4"/><use xlink:href="#11" y="2.171"/><use xlink:href="#14" y="4.342"/><use xlink:href="#15" y="6.513"/><use xlink:href="#19" y="8.684"/><use xlink:href="#24" y="10.855"/><use xlink:href="#30" y="13.026"/><text y="16.867" class="f">&gt;</text><text x="2.004" y="16.867" class="f">x</text></svg><svg x="11663"><use xlink:href="#a"/><use xlink:href="#b" x="3.996" y="15.172"/><use xlink:href="#4"/><use xlink:href="#11" y="2.171"/><use xlink:href="#14" y="4.342"/><use xlink:href="#15" y="6.513"/><use xlink:href="#19" y="8.684"/><use xlink:href="#24" y="10.855"/><use xlink:href="#30" y="13.026"/><use xlink:href="#31" y="15.197"/></svg><svg x="11770"><use xlink:href="#a"/><use xlink:href="#b" x="-.004" y="17.343"/><use xlink:href="#4"/><use xlink:href="#11" y="2.171"/><use xlink:href="#14" y="4.342"/><use xlink:href="#15" y="6.513"/><use xlink:href="#19" y="8.684"/><use xlink:href="#24" y="10.855"/><use xlink:href="#30" y="13.026"/><use xlink:href="#31" y="15.197"/></svg><svg x="11877"><use xlink:href="#a"/><use xlink:href="#b" x="1.996" y="19.514"/><use xlink:href="#4"/><use xlink:href="#11" y="2.171"/><use xlink:href="#14" y="4.342"/><use xlink:href="#15" y="6.513"/><use xlink:href="#19" y="8.684"/><use xlink:href="#24" y="10.855"/><use xlink:href="#30" y="13.026"/><use xlink:href="#31" y="15.197"/><use xlink:href="#32" y="17.368"/><use xlink:href="#5" y="19.539"/></svg><svg x="11984"><use xlink:href="#a"/><use xlink:href="#b" x="2.996" y="19.514"/><use xlink:href="#4"/><use xlink:href="#11" y="2.171"/><use xlink:href="#14" y="4.342"/><use xlink:href="#15" y="6.513"/><use xlink:href="#19" y="8.684"/><use xlink:href="#24" y="10.855"/><use xlink:href="#30" y="13.026"/><use xlink:href="#31" y="15.197"/><use xlink:href="#32" y="17.368"/><text y="21.209" class="f">&gt;</text><text x="2.004" y="21.209" class="f">p</text></svg><svg x="12091"><use xlink:href="#a"/><use xlink:href="#b" x="3.996" y="19.514"/><use xlink:href="#4"/><use xlink:href="#11" y="2.171"/><use xlink:href="#14" y="4.342"/><use xlink:href="#15" y="6.513"/><use xlink:href="#19" y="8.684"/><use xlink:href="#24" y="10.855"/><use xlink:href="#30" y="13.026"/><use xlink:href="#31" y="15.197"/><use xlink:href="#32" y="17.368"/><text y="21.209" class="f">&gt;</text><text x="2.004" y="21.209" class="f">pr</text></svg><svg x="12198"><use xlink:href="#a"/><use xlink:href="#b" x="4.996" y="19.514"/><use xlink:href="#4"/><use xlink:href="#11" y="2.171"/><use xlink:href="#14" y="4.342"/><use xlink:href="#15" y="6.513"/><use xlink:href="#19" y="8.684"/><use xlink:href="#24" y="10.855"/><use xlink:href="#30" y="13.026"/><use xlink:href="#31" y="15.197"/><use xlink:href="#32" y="17.368"/><text y="21.209" class="f">&gt;</text><text x="2.004" y="21.209" class="f">pri</text></svg><svg x="12305"><use xlink:href="#a"/><use xlink:href="#b" x="5.996" y="19.514"/><use xlink:href="#4"/><use xlink:href="#11" y="2.171"/><use xlink:href="#14" y="4.342"/><use xlink:href="#15" y="6.513"/><use xlink:href="#19" y="8.684"/><use xlink:href="#24" y="10.855"/><use xlink:href="#30" y="13.026"/><use xlink:href="#31" y="15.197"/><use xlink:href="#32" y="17.368"/><text y="21.209" class="f">&gt;</text><text x="2.004" y="21.209" class="f">prin</text></svg><svg x="12412"><use xlink:href="#a"/><use xlink:href="#b" x="6.996" y="19.514"/><use xlink:href="#4"/><use xlink:href="#11" y="2.171"/><use xlink:href="#14" y="4.342"/><use xlink:href="#15" y="6.513"/><use xlink:href="#19" y="8.684"/><use xlink:href="#24" y="10.855"/><use xlink:href="#30" y="13.026"/><use xlink:href="#31" y="15.197"/><use xlink:href="#32" y="17.368"/><use xlink:href="#33" y="19.539"/></svg><svg x="12519"><use xlink:href="#a"/><use xlink:href="#b" x="7.996" y="19.514"/><use xlink:href="#4"/><use xlink:href="#11" y="2.171"/><use xlink:href="#14" y="4.342"/><use xlink:href="#15" y="6.513"/><use xlink:href="#19" y="8.684"/><use xlink:href="#24" y="10.855"/><use xlink:href="#30" y="13.026"/><use xlink:href="#31" y="15.197"/><use xlink:href="#32" y="17.368"/><use xlink:href="#33" y="19.539"/></svg><svg x="12626"><use xlink:href="#a"/><use xlink:href="#b" x="8.996" y="19.514"/><use xlink:href="#4"/><use xlink:href="#11" y="2.171"/><use xlink:href="#14" y="4.342"/><use xlink:href="#15" y="6.513"/><use xlink:href="#19" y="8.684"/><use xlink:href="#24" y="10.855"/><use xlink:href="#30" y="13.026"/><use xlink:href="#31" y="15.197"/><use xlink:href="#32" y="17.368"/><text y="21.209" class="f">&gt;</text><text x="2.004" y="21.209" class="f">print</text><text x="8.016" y="21.209" class="f">x</text></svg><svg x="12733"><use xlink:href="#a"/><use xlink:href="#b" x="9.996" y="19.514"/><use xlink:href="#4"/><use xlink:href="#11" y="2.171"/><use xlink:href="#14" y="4.342"/><use xlink:href="#15" y="6.513"/><use xlink:href="#19" y="8.684"/><use xlink:href="#24" y="10.855"/><use xlink:href="#30" y="13.026"/><use xlink:href="#31" y="15.197"/><use xlink:href="#32" y="17.368"/><use xlink:href="#34" y="19.539"/></svg><svg x="12840"><use xlink:href="#a"/><use xlink:href="#b" x="-.004" y="21.685"/><use xlink:href="#4"/><use xlink:href="#11" y="2.171"/><use xlink:href="#14" y="4.342"/><use xlink:href="#15" y="6.513"/><use xlink:href="#19" y="8.684"/><use xlink:href="#24" y="10.855"/><use xlink:href="#30" y="13.026"/><use xlink:href="#31" y="15.197"/><use xlink:href="#32" y="17.368"/><use xlink:href="#34" y="19.539"/></svg><svg x="12947"><use xlink:href="#a"/><use xlink:href="#b" x="1.996" y="23.856"/><use xlink:href="#4"/><use xlink:href="#11" y="2.171"/><use xlink:href="#14" y="4.342"/><use xlink:href="#15" y="6.513"/><use xlink:href="#19" y="8.684"/><use xlink:href="#24" y="10.855"/><use xlink:href="#30" y="13.026"/><use xlink:href="#31" y="15.197"/><use xlink:href="#32" y="17.368"/><use xlink:href="#34" y="19.539"/><use xlink:href="#32" y="21.71"/><use xlink:href="#5" y="23.881"/></svg><svg x="13054"><use xlink:href="#a"/><use xlink:href="#b" x="-.004" y="26.027"/><use xlink:href="#4"/><use xlink:href="#11" y="2.171"/><use xlink:href="#14" y="4.342"/><use xlink:href="#15" y="6.513"/><use xlink:href="#19" y="8.684"/><use xlink:href="#24" y="10.855"/><use xlink:href="#30" y="13.026"/><use xlink:href="#31" y="15.197"/><use xlink:href="#32" y="17.368"/><use xlink:href="#34" y="19.539"/><use xlink:href="#32" y="21.71"/><use xlink:href="#5" y="23.881"/></svg></svg></g></g></svg></svg>